<?xml version="1.0" encoding="utf-8"?>
<!-- Generator: Adobe Illustrator 19.2.0, SVG Export Plug-In . SVG Version: 6.00 Build 0)  -->
<svg version="1.1" xmlns="http://www.w3.org/2000/svg" xmlns:xlink="http://www.w3.org/1999/xlink" x="0px" y="0px"
	 viewBox="0 0 440 400" style="enable-background:new 0 0 440 400;" xml:space="preserve">
<style type="text/css">
	.st0{fill:url(#SVGID_1_);}
	.st1{fill:url(#SVGID_2_);}
	.st2{display:none;}
	.st3{display:inline;fill:#00FF00;stroke:#00FF00;stroke-width:2;stroke-miterlimit:10;}
	.st4{display:inline;fill:#FF00FF;stroke:#FF00FF;stroke-width:2;stroke-miterlimit:10;}
</style>
<g id="Calque_2">
	<linearGradient id="SVGID_1_" gradientUnits="userSpaceOnUse" x1="445.0932" y1="11.0698" x2="27.7674" y2="361.2477">
		<stop  offset="0.1" style="stop-color:#373632"/>
		<stop  offset="1" style="stop-color:#000000"/>
	</linearGradient>
	<polygon class="st0" points="71.1,32.5 3.9,302 62,302 90.8,184.6 133.7,185.8 104.7,302 139,302 60.3,400 125,400 237.5,258.4 
		267.9,400 330,400 286.4,196.2 440,5 377.8,5 272.9,135.4 245.4,5 184,5 207.8,121.4 223.7,194.5 176.1,255.2 202.5,148.4 
		208.8,120.4 190,33.1 172.4,34 144.1,142.3 101.7,142 130,31.5 	"/>
	<linearGradient id="SVGID_2_" gradientUnits="userSpaceOnUse" x1="431.0985" y1="182.5368" x2="380.1671" y2="225.2733">
		<stop  offset="0.1" style="stop-color:#373632"/>
		<stop  offset="1" style="stop-color:#000000"/>
	</linearGradient>
	<circle class="st1" cx="405.6" cy="203.9" r="33.2"/>
</g>
<g id="Calque_3" class="st2">
	<line class="st3" x1="60.3" y1="400" x2="387.3" y2="-8.8"/>
	<line class="st3" x1="106.3" y1="423" x2="433.3" y2="14.2"/>
</g>
<g id="Calque_4" class="st2">
	<line class="st4" x1="179.9" y1="0" x2="271.8" y2="426.7"/>
	<line class="st4" x1="242.8" y1="-13.3" x2="334.7" y2="413.3"/>
</g>
</svg>
